<svg width="450" height="450" viewBox="0 0 450 450" fill="none" xmlns="http://www.w3.org/2000/svg">
<rect width="450" height="450" rx="100" fill="#0089FF"/>
<path d="M167 164C193.4 164 214.8 185.4 215 212V257H197.4V249C188.2 256.4 177.6 259.8 167.4 259.8C142.6 259.8 119 240.4 119 212C119 185.4 140.4 164 167 164ZM197.4 212.2C197.4 196.6 185.4 181.6 167 181.6C150.2 181.6 136.6 195.2 136.6 212C136.6 230.2 151.6 242.2 167.2 242.2C183.6 242.2 197.4 228.6 197.4 212.2ZM281.914 164C307.914 164 329.914 185 329.914 212C329.914 237.6 309.114 259.8 281.914 259.8C271.114 259.8 260.314 256.2 251.514 249V302.6H233.914V212C233.914 185.2 255.514 164 281.914 164ZM281.914 242.2C298.714 242.2 312.314 228.6 312.314 212C312.314 195.2 298.714 181.6 281.914 181.6C265.114 181.6 251.514 195.2 251.514 212C251.514 228.6 265.114 242.2 281.914 242.2Z" fill="white"/>
</svg>
