<svg width="824" height="240" viewBox="0 0 824 240" fill="none" xmlns="http://www.w3.org/2000/svg">
<path d="M76.4 53.8C112.6 144.4 94.4 99.2 130.8 189.8H111.8L98.2 155.8H35.6C26.4 178.4 31 167.2 22 189.8H3L57.4 53.8H76.4ZM42.6 138.2H91.2L66.8 77.4C50.6 118 58.8 97.8 42.6 138.2ZM138.031 54H155.631V190H138.031V54ZM265.797 189.8C265.797 208.8 249.397 233.8 217.797 233.8H203.797V216.2H217.797C242.797 216.2 248.197 195 248.197 189.8H265.797ZM265.797 144.4C265.797 168.8 247.197 192.8 217.797 192.8C191.197 192.8 169.797 171.4 169.797 145C169.797 118.2 191.797 97 217.597 97C220.397 97 223.197 97.2 225.997 97.6C235.797 88.4 230.797 93 240.597 83.6C248.597 92 244.597 87.8 252.797 96.4L243.997 104.8C258.997 114.6 265.797 129.6 265.797 144.4ZM217.797 175.2C234.597 175.2 248.197 161.6 248.197 145C248.197 128.2 234.597 114.6 217.797 114.6C200.997 114.6 187.397 128.2 187.397 145C187.397 161.6 200.997 175.2 217.797 175.2ZM326.195 192.8C299.595 192.8 278.195 171.4 278.195 144.8C278.195 118.4 299.595 96.8 326.195 96.8C352.595 96.8 374.195 118.4 374.195 144.8C373.995 171.4 352.595 192.8 326.195 192.8ZM326.195 114.4C309.395 114.4 295.795 128 295.795 144.8C295.795 161.6 309.395 175.2 326.195 175.2C342.995 175.2 356.595 161.6 356.595 144.8C356.595 128 342.995 114.4 326.195 114.4ZM583.644 100V149.2C583.644 173.4 563.844 193 539.644 193C515.444 193 495.844 173.4 495.844 149.2V100H513.444V149C513.444 163.6 525.244 175.4 539.644 175.4C554.244 175.4 566.044 163.6 566.044 149V100H583.644ZM603.461 54H621.061V190H603.461V54ZM674.231 192.8C658.231 192.8 642.031 186.2 635.031 171.2L651.031 163.8C654.831 172 664.431 175.2 674.031 175.2C686.231 175.2 698.431 170 698.431 164.4C698.431 151.6 635.831 157.2 635.831 125.4C635.831 108 655.631 97 675.831 97C691.431 97 707.231 103.4 714.231 118.6L698.431 126C694.431 117.8 685.031 114.6 675.831 114.6C664.431 114.6 653.431 119.4 653.431 125.4C653.431 138.8 715.831 132.8 715.831 164.4C715.831 181.8 695.231 192.8 674.231 192.8ZM771.503 175.2H771.703C780.703 175.2 789.303 171.2 795.103 164.2L810.303 173.2C800.303 186.8 786.303 192.8 772.503 192.8C747.703 192.8 723.703 174 723.703 145C723.703 114.6 748.103 97 772.503 97C791.103 97 809.703 107.4 817.103 129.8L751.503 167.6C757.103 172.6 764.303 175.2 771.503 175.2ZM741.103 144.4C741.103 147.2 741.503 150 742.303 152.8C776.103 133.2 759.103 143 793.103 123.4C786.903 117.2 779.303 114.4 772.103 114.4C756.303 114.4 741.103 127.2 741.103 144.4Z" fill="white"/>
<path d="M434.859 97C460.859 97 482.859 118 482.859 145C482.859 170.6 462.059 192.8 434.859 192.8C424.059 192.8 413.259 189.2 404.459 182V235.6H386.859V145C386.859 118.2 408.459 97 434.859 97ZM434.859 175.2C451.659 175.2 465.259 161.6 465.259 145C465.259 128.2 451.659 114.6 434.859 114.6C418.059 114.6 404.459 128.2 404.459 145C404.459 161.6 418.059 175.2 434.859 175.2Z" fill="#0089FF"/>
</svg>
